<?xml version="1.0" encoding="UTF-8" standalone="no"?>
<svg
   xmlns:dc="http://purl.org/dc/elements/1.1/"
   xmlns:cc="http://creativecommons.org/ns#"
   xmlns:rdf="http://www.w3.org/1999/02/22-rdf-syntax-ns#"
   xmlns:svg="http://www.w3.org/2000/svg"
   xmlns="http://www.w3.org/2000/svg"
   xmlns:sodipodi="http://sodipodi.sourceforge.net/DTD/sodipodi-0.dtd"
   xmlns:inkscape="http://www.inkscape.org/namespaces/inkscape"
   version="1.1"
   id="svg2"
   xml:space="preserve"
   width="447.93417"
   height="291.74341"
   viewBox="0 0 447.93417 291.74341"
   sodipodi:docname="nex_vs_E0.svg"
   inkscape:version="1.0.2 (e86c870879, 2021-01-15)"><metadata
     id="metadata8"><rdf:RDF><cc:Work
         rdf:about=""><dc:format>image/svg+xml</dc:format><dc:type
           rdf:resource="http://purl.org/dc/dcmitype/StillImage" /><dc:title></dc:title></cc:Work></rdf:RDF></metadata><defs
     id="defs6" /><sodipodi:namedview
     pagecolor="#ffffff"
     bordercolor="#666666"
     borderopacity="1"
     objecttolerance="10"
     gridtolerance="10"
     guidetolerance="10"
     inkscape:pageopacity="0"
     inkscape:pageshadow="2"
     inkscape:window-width="1920"
     inkscape:window-height="1016"
     id="namedview4"
     showgrid="false"
     inkscape:zoom="1.8393194"
     inkscape:cx="253.29981"
     inkscape:cy="73.139241"
     inkscape:window-x="0"
     inkscape:window-y="27"
     inkscape:window-maximized="1"
     inkscape:current-layer="g112" /><g
     id="g10"
     inkscape:groupmode="layer"
     inkscape:label="nex_vs_E0"
     transform="matrix(1.3333333,0,0,-1.3333333,-15.28036,322.94073)"><g
       id="g12"
       transform="scale(0.1)"><path
         d="m 588,595.67127 h 15.5 m 2780,0 H 3368 M 588,638.31479 h 15.5 m 2780,0 H 3368 m -2780,25.8736 h 15.5 m 2780,0 H 3368 M 588,682.39574 h 15.5 m 2780,0 H 3368 M 588,696.76996 h 15.5 m 2780,0 H 3368 M 588,708.74848 h 15.5 m 2780,0 H 3368 M 588,718.81044 h 15.5 m 2780,0 H 3368 m -2780,8.62453 h 15.5 m 2780,0 H 3368 m -2780,7.66625 h 31.5 m 2764,0 H 3352"
         style="fill:none;stroke:#000000;stroke-width:2.4473;stroke-linecap:butt;stroke-linejoin:miter;stroke-miterlimit:3.8;stroke-dasharray:none;stroke-opacity:1"
         id="path14" /><g
         id="g16"
         transform="matrix(10,0,0,9.5828151,0,100.71887)"><text
           transform="matrix(1,0,0,-1,24.3848,61)"
           style="font-variant:normal;font-weight:normal;font-size:12px;font-family:Arial;-inkscape-font-specification:Arial;writing-mode:lr-tb;fill:#000000;fill-opacity:1;fill-rule:nonzero;stroke:none"
           id="text20"><tspan
             x="0 6.6719999"
             y="0"
             sodipodi:role="line"
             id="tspan18">10</tspan></text><text
           transform="matrix(1,0,0,-1,37.7289,67)"
           style="font-variant:normal;font-weight:normal;font-size:9.6px;font-family:Arial;-inkscape-font-specification:Arial;writing-mode:lr-tb;fill:#000000;fill-opacity:1;fill-rule:nonzero;stroke:none"
           id="text24"><tspan
             x="0 3.1968 8.5344"
             y="0"
             sodipodi:role="line"
             id="tspan22">-12</tspan></text></g><path
         d="m 588,898.48822 h 15.5 m 2780,0 H 3368 M 588,941.13175 h 15.5 m 2780,0 H 3368 m -2780,25.8736 h 15.5 m 2780,0 H 3368 M 588,985.2127 h 15.5 m 2780,0 H 3368 M 588,999.58692 h 15.5 m 2780,0 H 3368 M 588,1011.5654 h 15.5 m 2780,0 H 3368 m -2780,10.062 h 15.5 m 2780,0 H 3368 m -2780,8.6245 h 15.5 m 2780,0 H 3368 m -2780,7.6663 h 31.5 m 2764,0 H 3352"
         style="fill:none;stroke:#000000;stroke-width:2.4473;stroke-linecap:butt;stroke-linejoin:miter;stroke-miterlimit:3.8;stroke-dasharray:none;stroke-opacity:1"
         id="path26" /><g
         id="g28"
         transform="matrix(10,0,0,9.5828151,0,100.71887)"><text
           transform="matrix(1,0,0,-1,24.3848,92.6)"
           style="font-variant:normal;font-weight:normal;font-size:12px;font-family:Arial;-inkscape-font-specification:Arial;writing-mode:lr-tb;fill:#000000;fill-opacity:1;fill-rule:nonzero;stroke:none"
           id="text32"><tspan
             x="0 6.6719999"
             y="0"
             sodipodi:role="line"
             id="tspan30">10</tspan></text><text
           transform="matrix(1,0,0,-1,37.7289,98.6)"
           style="font-variant:normal;font-weight:normal;font-size:9.6px;font-family:Arial;-inkscape-font-specification:Arial;writing-mode:lr-tb;fill:#000000;fill-opacity:1;fill-rule:nonzero;stroke:none"
           id="text36"><tspan
             x="0 3.1968 8.5344"
             y="0"
             sodipodi:role="line"
             id="tspan34">-10</tspan></text></g><path
         d="m 588,1201.3052 h 15.5 m 2780,0 H 3368 m -2780,42.6435 h 15.5 m 2780,0 H 3368 m -2780,25.8736 h 15.5 m 2780,0 H 3368 m -2780,18.2074 h 15.5 m 2780,0 H 3368 m -2780,14.3742 h 15.5 m 2780,0 H 3368 m -2780,11.9785 h 15.5 m 2780,0 H 3368 m -2780,9.5828 h 15.5 m 2780,0 H 3368 m -2780,9.1037 h 15.5 m 2780,0 H 3368 m -2780,7.6662 h 31.5 m 2764,0 H 3352"
         style="fill:none;stroke:#000000;stroke-width:2.4473;stroke-linecap:butt;stroke-linejoin:miter;stroke-miterlimit:3.8;stroke-dasharray:none;stroke-opacity:1"
         id="path38" /><g
         id="g40"
         transform="matrix(10,0,0,9.5828151,0,100.71887)"><text
           transform="matrix(1,0,0,-1,29.7223,124.2)"
           style="font-variant:normal;font-weight:normal;font-size:12px;font-family:Arial;-inkscape-font-specification:Arial;writing-mode:lr-tb;fill:#000000;fill-opacity:1;fill-rule:nonzero;stroke:none"
           id="text44"><tspan
             x="0 6.6719999"
             y="0"
             sodipodi:role="line"
             id="tspan42">10</tspan></text><text
           transform="matrix(1,0,0,-1,43.0664,130.2)"
           style="font-variant:normal;font-weight:normal;font-size:9.6px;font-family:Arial;-inkscape-font-specification:Arial;writing-mode:lr-tb;fill:#000000;fill-opacity:1;fill-rule:nonzero;stroke:none"
           id="text48"><tspan
             x="0 3.1968"
             y="0"
             sodipodi:role="line"
             id="tspan46">-8</tspan></text></g><path
         d="m 588,1504.1221 h 15.5 m 2780,0 H 3368 m -2780,42.6436 h 15.5 m 2780,0 H 3368 m -2780,25.3944 h 15.5 m 2780,0 H 3368 m -2780,18.6865 h 15.5 m 2780,0 H 3368 m -2780,14.3742 h 15.5 m 2780,0 H 3368 m -2780,11.4994 h 15.5 m 2780,0 H 3368 m -2780,10.062 h 15.5 m 2780,0 H 3368 m -2780,8.6245 h 15.5 m 2780,0 H 3368 m -2780,7.6663 h 31.5 m 2764,0 H 3352"
         style="fill:none;stroke:#000000;stroke-width:2.4473;stroke-linecap:butt;stroke-linejoin:miter;stroke-miterlimit:3.8;stroke-dasharray:none;stroke-opacity:1"
         id="path50" /><g
         id="g52"
         transform="matrix(10,0,0,9.5828151,0,100.71887)"><text
           transform="matrix(1,0,0,-1,29.7223,155.75)"
           style="font-variant:normal;font-weight:normal;font-size:12px;font-family:Arial;-inkscape-font-specification:Arial;writing-mode:lr-tb;fill:#000000;fill-opacity:1;fill-rule:nonzero;stroke:none"
           id="text56"><tspan
             x="0 6.6719999"
             y="0"
             sodipodi:role="line"
             id="tspan54">10</tspan></text><text
           transform="matrix(1,0,0,-1,43.0664,161.75)"
           style="font-variant:normal;font-weight:normal;font-size:9.6px;font-family:Arial;-inkscape-font-specification:Arial;writing-mode:lr-tb;fill:#000000;fill-opacity:1;fill-rule:nonzero;stroke:none"
           id="text60"><tspan
             x="0 3.1968"
             y="0"
             sodipodi:role="line"
             id="tspan58">-6</tspan></text></g><path
         d="m 588,1806.46 h 15.5 m 2780,0 H 3368 m -2780,43.1226 h 15.5 m 2780,0 H 3368 m -2780,25.3945 h 15.5 m 2780,0 H 3368 m -2780,18.6865 h 15.5 m 2780,0 H 3368 m -2780,14.3742 h 15.5 m 2780,0 H 3368 m -2780,11.4994 h 15.5 m 2780,0 H 3368 m -2780,10.0619 h 15.5 m 2780,0 H 3368 m -2780,8.6246 h 15.5 m 2780,0 H 3368 m -2780,7.6662 h 31.5 m 2764,0 H 3352"
         style="fill:none;stroke:#000000;stroke-width:2.4473;stroke-linecap:butt;stroke-linejoin:miter;stroke-miterlimit:3.8;stroke-dasharray:none;stroke-opacity:1"
         id="path62" /><g
         id="g64"
         transform="matrix(10,0,0,9.5828151,0,100.71887)"><text
           transform="matrix(1,0,0,-1,29.7223,187.35)"
           style="font-variant:normal;font-weight:normal;font-size:12px;font-family:Arial;-inkscape-font-specification:Arial;writing-mode:lr-tb;fill:#000000;fill-opacity:1;fill-rule:nonzero;stroke:none"
           id="text68"><tspan
             x="0 6.6719999"
             y="0"
             sodipodi:role="line"
             id="tspan66">10</tspan></text><text
           transform="matrix(1,0,0,-1,43.0664,193.35)"
           style="font-variant:normal;font-weight:normal;font-size:9.6px;font-family:Arial;-inkscape-font-specification:Arial;writing-mode:lr-tb;fill:#000000;fill-opacity:1;fill-rule:nonzero;stroke:none"
           id="text72"><tspan
             x="0 3.1968"
             y="0"
             sodipodi:role="line"
             id="tspan70">-4</tspan></text></g><path
         d="m 588,2109.2769 h 15.5 m 2780,0 H 3368 m -2780,42.6435 h 15.5 m 2780,0 H 3368 M 588,2177.794 h 15.5 m 2780,0 H 3368 m -2780,18.6865 h 15.5 m 2780,0 H 3368 m -2780,14.3742 h 15.5 m 2780,0 H 3368 m -2780,11.4994 h 15.5 m 2780,0 H 3368 m -2780,10.062 h 15.5 m 2780,0 H 3368 m -2780,8.6245 h 15.5 m 2780,0 H 3368 m -2780,7.6663 h 31.5 m 2764,0 H 3352"
         style="fill:none;stroke:#000000;stroke-width:2.4473;stroke-linecap:butt;stroke-linejoin:miter;stroke-miterlimit:3.8;stroke-dasharray:none;stroke-opacity:1"
         id="path74" /><g
         id="g76"
         transform="matrix(10,0,0,9.5828151,0,100.71887)"><text
           transform="matrix(1,0,0,-1,29.7223,218.95)"
           style="font-variant:normal;font-weight:normal;font-size:12px;font-family:Arial;-inkscape-font-specification:Arial;writing-mode:lr-tb;fill:#000000;fill-opacity:1;fill-rule:nonzero;stroke:none"
           id="text80"><tspan
             x="0 6.6719999"
             y="0"
             sodipodi:role="line"
             id="tspan78">10</tspan></text><text
           transform="matrix(1,0,0,-1,43.0664,224.95)"
           style="font-variant:normal;font-weight:normal;font-size:9.6px;font-family:Arial;-inkscape-font-specification:Arial;writing-mode:lr-tb;fill:#000000;fill-opacity:1;fill-rule:nonzero;stroke:none"
           id="text84"><tspan
             x="0 3.1968"
             y="0"
             sodipodi:role="line"
             id="tspan82">-2</tspan></text></g><path
         d="m 588,583.69275 v 14.85336 m 0,1801.56919 V 2385.262 M 877.5,583.69275 v 14.85336 m 0,1801.56919 v -14.8533 m 206,-1801.56925 v 14.85336 m 0,1801.56919 V 2385.262 M 1243,583.69275 v 14.85336 m 0,1801.56919 V 2385.262 M 1373,583.69275 v 14.85336 m 0,1801.56919 V 2385.262 M 1483,583.69275 v 14.85336 m 0,1801.56919 v -14.8533 m 95.5,-1801.56925 v 14.85336 m 0,1801.56919 V 2385.262 M 1663,583.69275 v 14.85336 m 0,1801.56919 v -14.8533 m 75,-1801.56925 v 30.18586 m 0,1786.23669 v -30.1858"
         style="fill:none;stroke:#000000;stroke-width:2.4473;stroke-linecap:butt;stroke-linejoin:miter;stroke-miterlimit:3.8;stroke-dasharray:none;stroke-opacity:1"
         id="path86" /><g
         id="g88"
         transform="matrix(10,0,0,9.5828151,0,100.71887)"><text
           transform="matrix(1,0,0,-1,164.459,33.2)"
           style="font-variant:normal;font-weight:normal;font-size:12px;font-family:Arial;-inkscape-font-specification:Arial;writing-mode:lr-tb;fill:#000000;fill-opacity:1;fill-rule:nonzero;stroke:none"
           id="text92"><tspan
             x="0 6.6719999"
             y="0"
             sodipodi:role="line"
             id="tspan90">10</tspan></text><text
           transform="matrix(1,0,0,-1,177.8031,39.2)"
           style="font-variant:normal;font-weight:normal;font-size:9.6px;font-family:Arial;-inkscape-font-specification:Arial;writing-mode:lr-tb;fill:#000000;fill-opacity:1;fill-rule:nonzero;stroke:none"
           id="text96"><tspan
             x="0"
             y="0"
             id="tspan94">3</tspan></text></g><path
         d="m 2233.5,583.69275 v 14.85336 m 0,1801.56919 V 2385.262 M 2523,583.69275 v 14.85336 m 0,1801.56919 V 2385.262 M 2728.5,583.69275 v 14.85336 m 0,1801.56919 V 2385.262 M 2888,583.69275 v 14.85336 m 0,1801.56919 V 2385.262 M 3018.5,583.69275 v 14.85336 m 0,1801.56919 v -14.8533 m 110,-1801.56925 v 14.85336 m 0,1801.56919 V 2385.262 M 3224,583.69275 v 14.85336 m 0,1801.56919 v -14.8533 m 84,-1801.56925 v 14.85336 m 0,1801.56919 v -14.8533 m 75.5,-1801.56925 v 30.18586 m 0,1786.23669 v -30.1858"
         style="fill:none;stroke:#000000;stroke-width:2.4473;stroke-linecap:butt;stroke-linejoin:miter;stroke-miterlimit:3.8;stroke-dasharray:none;stroke-opacity:1"
         id="path98" /><g
         id="g100"
         transform="matrix(10,0,0,9.5828151,0,100.71887)"><text
           transform="matrix(1,0,0,-1,329.009,33.2)"
           style="font-variant:normal;font-weight:normal;font-size:12px;font-family:Arial;-inkscape-font-specification:Arial;writing-mode:lr-tb;fill:#000000;fill-opacity:1;fill-rule:nonzero;stroke:none"
           id="text104"><tspan
             x="0 6.6719999"
             y="0"
             sodipodi:role="line"
             id="tspan102">10</tspan></text><text
           transform="matrix(1,0,0,-1,342.3531,39.2)"
           style="font-variant:normal;font-weight:normal;font-size:9.6px;font-family:Arial;-inkscape-font-specification:Arial;writing-mode:lr-tb;fill:#000000;fill-opacity:1;fill-rule:nonzero;stroke:none"
           id="text108"><tspan
             x="0"
             y="0"
             id="tspan106">4</tspan></text></g><path
         d="M 588,2400.1153 V 583.69275 H 3383.5 V 2400.1153 Z"
         style="fill:none;stroke:#000000;stroke-width:4.89459;stroke-linecap:butt;stroke-linejoin:miter;stroke-miterlimit:3.8;stroke-dasharray:none;stroke-opacity:1"
         id="path110" /><g
         id="g112"
         transform="matrix(10,0,0,9.5828151,0,100.71887)"><text
           transform="matrix(1,0,0,-1,72.8,217)"
           style="font-variant:normal;font-weight:normal;font-size:12px;font-family:Arial;-inkscape-font-specification:Arial;writing-mode:lr-tb;fill:#000000;fill-opacity:1;fill-rule:nonzero;stroke:none"
           id="text116"
           inkscape:transform-center-x="-2.1073051"
           inkscape:transform-center-y="1.5258628"><tspan
             x="0 3.9960001 10.668"
             y="0"
             sodipodi:role="line"
             id="tspan114">(b)</tspan></text><text
           transform="matrix(0,1.0020056,0.99799845,0,305.27068,-57.431305)"
           style="font-variant:normal;font-weight:normal;font-size:12.0241px;font-family:Arial;-inkscape-font-specification:Arial;writing-mode:lr-tb;white-space:pre;inline-size:227.881;fill:#000000;fill-opacity:1;fill-rule:nonzero;stroke:none;stroke-width:1.00201"
           id="text120"
           x="107.23724"
           y="-285.68689"
           xml:space="preserve"><tspan
             x="107.23724"
             y="-285.68689"><tspan
               style="stroke-width:1.00201">  Number of </tspan><tspan
               style="font-size:11.2594px;stroke-width:1.00201">excited electron per atom</tspan></tspan></text><text
           transform="matrix(1,0,0,-1,170.55,17.6)"
           style="font-variant:normal;font-weight:normal;font-size:12px;font-family:Arial;-inkscape-font-specification:Arial;writing-mode:lr-tb;fill:#000000;fill-opacity:1;fill-rule:nonzero;stroke:none"
           id="text124"><tspan
             x="0"
             y="0"
             id="tspan122">E</tspan></text><text
           transform="matrix(1,0,0,-1,178.55391,14)"
           style="font-variant:normal;font-weight:normal;font-size:9.6px;font-family:Arial;-inkscape-font-specification:Arial;writing-mode:lr-tb;fill:#000000;fill-opacity:1;fill-rule:nonzero;stroke:none"
           id="text128"><tspan
             x="0"
             y="0"
             id="tspan126">0</tspan></text><text
           transform="matrix(1,0,0,-1,187.22741,17.6)"
           style="font-variant:normal;font-weight:normal;font-size:12px;font-family:Arial;-inkscape-font-specification:Arial;writing-mode:lr-tb;fill:#000000;fill-opacity:1;fill-rule:nonzero;stroke:none"
           id="text134"><tspan
             x="0 3.9960001 13.992 21.996 25.332001 35.327999"
             y="0"
             sodipodi:role="line"
             id="tspan130">(MV/m)</tspan><tspan
             x="80.763199"
             y="-60.150002"
             id="tspan132">n</tspan></text><text
           transform="matrix(1,0,0,-1,274.66249,74.15)"
           style="font-variant:normal;font-weight:normal;font-size:9.6px;font-family:Arial;-inkscape-font-specification:Arial;writing-mode:lr-tb;fill:#000000;fill-opacity:1;fill-rule:nonzero;stroke:none"
           id="text138"><tspan
             x="0 5.3376002"
             y="0"
             sodipodi:role="line"
             id="tspan136">ex</tspan></text></g><path
         d="m 2920,872.61462 h 319.5 M 588,687.18715 877.5,856.32384 1243,1079.1243 l 495,321.0243 290,187.8232 205.5,126.9723 289.5,174.4072 205.5,159.5539 159.5,101.0987 240.5,124.0974 255,125.0558"
         style="fill:none;stroke:#000000;stroke-width:15.3;stroke-linecap:butt;stroke-linejoin:miter;stroke-miterlimit:3.8;stroke-dasharray:none;stroke-opacity:1"
         id="path140" /><path
         d="m 603.75,687.18715 c 0,8.33226 -7.055,15.09293 -15.75,15.09293 -8.695,0 -15.75,-6.76067 -15.75,-15.09293 0,-8.33226 7.055,-15.09293 15.75,-15.09293 8.695,0 15.75,6.76067 15.75,15.09293"
         style="fill:#ff0000;fill-opacity:1;fill-rule:nonzero;stroke:none;stroke-width:0.978919"
         id="path142" /><path
         d="m 893.25,856.32384 c 0,8.33225 -7.055,15.09293 -15.75,15.09293 -8.695,0 -15.75,-6.76068 -15.75,-15.09293 0,-8.33226 7.055,-15.09294 15.75,-15.09294 8.695,0 15.75,6.76068 15.75,15.09294"
         style="fill:#ff0000;fill-opacity:1;fill-rule:nonzero;stroke:none;stroke-width:0.978919"
         id="path144" /><path
         d="m 1258.75,1079.1243 c 0,8.337 -7.05,15.0929 -15.75,15.0929 -8.7,0 -15.75,-6.7559 -15.75,-15.0929 0,-8.3371 7.05,-15.0929 15.75,-15.0929 8.7,0 15.75,6.7558 15.75,15.0929"
         style="fill:#ff0000;fill-opacity:1;fill-rule:nonzero;stroke:none;stroke-width:0.978919"
         id="path146" /><path
         d="m 1753.75,1400.1486 c 0,8.337 -7.05,15.0929 -15.75,15.0929 -8.7,0 -15.75,-6.7559 -15.75,-15.0929 0,-8.3371 7.05,-15.0929 15.75,-15.0929 8.7,0 15.75,6.7558 15.75,15.0929"
         style="fill:#ff0000;fill-opacity:1;fill-rule:nonzero;stroke:none;stroke-width:0.978919"
         id="path148" /><path
         d="m 2043.75,1587.9718 c 0,8.337 -7.05,15.0929 -15.75,15.0929 -8.7,0 -15.75,-6.7559 -15.75,-15.0929 0,-8.3371 7.05,-15.093 15.75,-15.093 8.7,0 15.75,6.7559 15.75,15.093"
         style="fill:#ff0000;fill-opacity:1;fill-rule:nonzero;stroke:none;stroke-width:0.978919"
         id="path150" /><path
         d="m 2249.25,1714.9441 c 0,8.337 -7.05,15.0929 -15.75,15.0929 -8.7,0 -15.75,-6.7559 -15.75,-15.0929 0,-8.3371 7.05,-15.093 15.75,-15.093 8.7,0 15.75,6.7559 15.75,15.093"
         style="fill:#ff0000;fill-opacity:1;fill-rule:nonzero;stroke:none;stroke-width:0.978919"
         id="path152" /><path
         d="m 2538.75,1889.3513 c 0,8.3371 -7.05,15.0929 -15.75,15.0929 -8.7,0 -15.75,-6.7558 -15.75,-15.0929 0,-8.337 7.05,-15.0929 15.75,-15.0929 8.7,0 15.75,6.7559 15.75,15.0929"
         style="fill:#ff0000;fill-opacity:1;fill-rule:nonzero;stroke:none;stroke-width:0.978919"
         id="path154" /><path
         d="m 2744.25,2048.9052 c 0,8.337 -7.05,15.0929 -15.75,15.0929 -8.7,0 -15.75,-6.7559 -15.75,-15.0929 0,-8.3371 7.05,-15.093 15.75,-15.093 8.7,0 15.75,6.7559 15.75,15.093"
         style="fill:#ff0000;fill-opacity:1;fill-rule:nonzero;stroke:none;stroke-width:0.978919"
         id="path156" /><path
         d="m 2903.75,2150.0039 c 0,8.337 -7.05,15.0929 -15.75,15.0929 -8.7,0 -15.75,-6.7559 -15.75,-15.0929 0,-8.3371 7.05,-15.093 15.75,-15.093 8.7,0 15.75,6.7559 15.75,15.093"
         style="fill:#ff0000;fill-opacity:1;fill-rule:nonzero;stroke:none;stroke-width:0.978919"
         id="path158" /><path
         d="m 3144.25,2274.1013 c 0,8.3371 -7.05,15.093 -15.75,15.093 -8.7,0 -15.75,-6.7559 -15.75,-15.093 0,-8.337 7.05,-15.0929 15.75,-15.0929 8.7,0 15.75,6.7559 15.75,15.0929"
         style="fill:#ff0000;fill-opacity:1;fill-rule:nonzero;stroke:none;stroke-width:0.978919"
         id="path160" /><path
         d="m 3399.25,2399.1571 c 0,8.337 -7.05,15.0929 -15.75,15.0929 -8.7,0 -15.75,-6.7559 -15.75,-15.0929 0,-8.3371 7.05,-15.093 15.75,-15.093 8.7,0 15.75,6.7559 15.75,15.093"
         style="fill:#ff0000;fill-opacity:1;fill-rule:nonzero;stroke:none;stroke-width:0.978919"
         id="path162" /><path
         d="m 3095.25,872.61462 c 0,8.33226 -7.05,15.09294 -15.75,15.09294 -8.7,0 -15.75,-6.76068 -15.75,-15.09294 0,-8.33226 7.05,-15.09293 15.75,-15.09293 8.7,0 15.75,6.76067 15.75,15.09293"
         style="fill:#ff0000;fill-opacity:1;fill-rule:nonzero;stroke:none;stroke-width:0.978919"
         id="path164" /><g
         id="g166"
         transform="matrix(10,0,0,9.5828151,0,100.71887)"><text
           transform="matrix(1,0,0,-1,248.973,58.55)"
           style="font-variant:normal;font-weight:normal;font-size:12px;font-family:Symbol;-inkscape-font-specification:Symbol;writing-mode:lr-tb;fill:#000000;fill-opacity:1;fill-rule:nonzero;stroke:none"
           id="text170"><tspan
             x="0"
             y="0"
             id="tspan168">α</tspan></text><text
           transform="matrix(1,0,0,-1,259.88088,58.55)"
           style="font-variant:normal;font-weight:normal;font-size:12px;font-family:Arial;-inkscape-font-specification:Arial;writing-mode:lr-tb;fill:#000000;fill-opacity:1;fill-rule:nonzero;stroke:none"
           id="text174"><tspan
             x="0 3.1199999"
             y="0"
             sodipodi:role="line"
             id="tspan172">|E</tspan></text><text
           transform="matrix(1,0,0,-1,271.00508,54.95)"
           style="font-variant:normal;font-weight:normal;font-size:9.6px;font-family:Arial;-inkscape-font-specification:Arial;writing-mode:lr-tb;fill:#000000;fill-opacity:1;fill-rule:nonzero;stroke:none"
           id="text178"><tspan
             x="0"
             y="0"
             id="tspan176">0</tspan></text><text
           transform="matrix(1,0,0,-1,276.34258,58.55)"
           style="font-variant:normal;font-weight:normal;font-size:12px;font-family:Arial;-inkscape-font-specification:Arial;writing-mode:lr-tb;fill:#000000;fill-opacity:1;fill-rule:nonzero;stroke:none"
           id="text182"><tspan
             x="0"
             y="0"
             id="tspan180">|</tspan></text><text
           transform="matrix(1,0,0,-1,279.4625,64.55)"
           style="font-variant:normal;font-weight:normal;font-size:9.6px;font-family:Arial;-inkscape-font-specification:Arial;writing-mode:lr-tb;fill:#000000;fill-opacity:1;fill-rule:nonzero;stroke:none"
           id="text186"><tspan
             x="0"
             y="0"
             id="tspan184">6</tspan></text></g><path
         d="m 2920,700.12395 h 319.5 M 588,687.18715 l 28,15.81164 28.5,15.33251 28,15.81164 28.5,15.81165 28,15.3325 28.5,15.81165 28,15.3325 28.5,15.81165 28,15.3325 28.5,15.81165 28,15.3325 28.5,15.81164 28,15.33251 28.5,15.81164 28,15.33251 28.5,15.81164 28,15.33251 28.5,15.81164 28,15.33251 28,15.81164 28.5,15.81162 28,15.3325 28.5,15.8117 28,15.3325 28.5,15.8116 28,15.3325 28.5,15.8117 28,15.3325 28.5,15.8116 28,15.3325 28.5,15.8117 28,15.3325 28.5,15.8116 28,15.3325 28.5,15.8117 28,15.3325 28.5,15.8116 28,15.8117 28.5,15.3325 28,15.8116 28,15.3325 28.5,15.8117 28,15.3325 28.5,15.8116 28,15.3325 28.5,15.8117 28,15.3325 28.5,15.8116 28,15.3325 28.5,15.8117 28,15.3325 28.5,15.8116 28,15.3325 28.5,15.8117 28,15.8116 28.5,15.3325 28,15.8116 28.5,15.3326 28,15.8116 28,15.3325 28.5,15.8116 28,15.3326 28.5,15.8116 28,15.3325 28.5,15.8116 28,15.3325 28.5,15.8117 28,15.3325 28.5,15.8116 28,15.3325 28.5,15.8117 28,15.8116 28.5,15.3325 28,15.8117 28.5,15.3325 28,15.8116 28.5,15.3325 28,15.8117 28.5,15.3325 28,15.8116 28,15.3325 28.5,15.8117 28,15.3325 28.5,15.8116 28,15.3325 28.5,15.8117 28,15.3325 28.5,15.8116 28,15.8117 28.5,15.3325 28,15.8116 28.5,15.3325 28,15.8117 28.5,15.3325 28,15.8116 28.5,15.3325 28,15.8117 28.5,15.3325 28,15.8116"
         style="fill:#ff9955;stroke:#0007ff;stroke-width:14.55;stroke-linecap:butt;stroke-linejoin:miter;stroke-miterlimit:3.8;stroke-dasharray:116.4, 58.2;stroke-dashoffset:0;stroke-opacity:1"
         id="path188" /><path
         d="M 588,2400.1153 V 583.69275 H 3383.5 V 2400.1153 Z"
         style="fill:none;stroke:#000000;stroke-width:4.89459;stroke-linecap:butt;stroke-linejoin:miter;stroke-miterlimit:3.8;stroke-dasharray:none;stroke-opacity:1"
         id="path190" /></g></g></svg>
